#VRML V2.0 utf8
Transform { translation 0.0 0.0 0.21653543307086615 children [ Shape { appearance Appearance { material Material { diffuseColor 0.6 0.43 0.23 } } geometry Box { size 0.6299212598425197 0.31496062992125984 0.31496062992125984 } } ] }
Transform { translation -0.31496062992125984 0.0 0.07086614173228346 children [ Shape { appearance Appearance { material Material { diffuseColor .72 .73 .75 } } geometry Box { size 0.30118110236220474 0.31496062992125984 0.11811023622047244 } } ] }
Transform { translation 0.31496062992125984 0.0 0.07086614173228346 children [ Shape { appearance Appearance { material Material { diffuseColor .72 .73 .75 } } geometry Box { size 0.30118110236220474 0.31496062992125984 0.11811023622047244 } } ] }
