#VRML V2.0 utf8
Transform { translation 0.0 0.0 0.2755905511811024 children [ Shape { appearance Appearance { material Material { diffuseColor 0.6 0.43 0.23 } } geometry Box { size 0.7874015748031495 0.4921259842519685 0.4330708661417323 } } ] }
Transform { translation -0.39370078740157477 0.0 0.07086614173228346 children [ Shape { appearance Appearance { material Material { diffuseColor .72 .73 .75 } } geometry Box { size 0.3897637795275591 0.45669291338582674 0.11811023622047244 } } ] }
Transform { translation 0.39370078740157477 0.0 0.07086614173228346 children [ Shape { appearance Appearance { material Material { diffuseColor .72 .73 .75 } } geometry Box { size 0.3897637795275591 0.45669291338582674 0.11811023622047244 } } ] }
