#VRML V2.0 utf8
Transform { translation 0.0 0.0 0.3543307086614173 children [ Shape { appearance Appearance { material Material { diffuseColor 0.1 0.11 0.12 } } geometry Box { size 1.5354330708661417 1.9291338582677167 0.5905511811023622 } } ] }
Transform { translation -1.062992125984252 0.75 0.07086614173228346 children [ Shape { appearance Appearance { material Material { diffuseColor .72 .73 .75 } } geometry Box { size 0.5492125984251969 0.1889763779527559 0.11811023622047244 } } ] }
Transform { translation -1.062992125984252 0.25 0.07086614173228346 children [ Shape { appearance Appearance { material Material { diffuseColor .72 .73 .75 } } geometry Box { size 0.5492125984251969 0.1889763779527559 0.11811023622047244 } } ] }
Transform { translation -1.062992125984252 -0.25 0.07086614173228346 children [ Shape { appearance Appearance { material Material { diffuseColor .72 .73 .75 } } geometry Box { size 0.5492125984251969 0.1889763779527559 0.11811023622047244 } } ] }
Transform { translation -1.062992125984252 -0.75 0.07086614173228346 children [ Shape { appearance Appearance { material Material { diffuseColor .72 .73 .75 } } geometry Box { size 0.5492125984251969 0.1889763779527559 0.11811023622047244 } } ] }
Transform { translation 1.062992125984252 0.75 0.07086614173228346 children [ Shape { appearance Appearance { material Material { diffuseColor .72 .73 .75 } } geometry Box { size 0.5492125984251969 0.1889763779527559 0.11811023622047244 } } ] }
Transform { translation 1.062992125984252 0.25 0.07086614173228346 children [ Shape { appearance Appearance { material Material { diffuseColor .72 .73 .75 } } geometry Box { size 0.5492125984251969 0.1889763779527559 0.11811023622047244 } } ] }
Transform { translation 1.062992125984252 -0.25 0.07086614173228346 children [ Shape { appearance Appearance { material Material { diffuseColor .72 .73 .75 } } geometry Box { size 0.5492125984251969 0.1889763779527559 0.11811023622047244 } } ] }
Transform { translation 1.062992125984252 -0.75 0.07086614173228346 children [ Shape { appearance Appearance { material Material { diffuseColor .72 .73 .75 } } geometry Box { size 0.5492125984251969 0.1889763779527559 0.11811023622047244 } } ] }
