#VRML V2.0 utf8
Transform { translation 0.0 0.0 2.263779527559055 children [ Shape { appearance Appearance { material Material { diffuseColor 0.13 0.17 0.21 } } geometry Box { size 2.4803149606299213 2.4803149606299213 4.409448818897637 } } ] }
Transform { translation -0.4921259842519685 0.0 0.07086614173228346 children [ Shape { appearance Appearance { material Material { diffuseColor .72 .73 .75 } } geometry Box { size 0.7086614173228346 0.6299212598425197 0.11811023622047244 } } ] }
Transform { translation 0.4921259842519685 0.0 0.07086614173228346 children [ Shape { appearance Appearance { material Material { diffuseColor .72 .73 .75 } } geometry Box { size 0.7086614173228346 0.6299212598425197 0.11811023622047244 } } ] }
