#VRML V2.0 utf8
Transform { translation 0.0 0.0 0.8070866141732282 children [ Shape { appearance Appearance { material Material { diffuseColor 0.18 0.19 0.2 } } geometry Box { size 4.330708661417323 3.937007874015748 1.4960629921259843 } } ] }
Transform { translation -1.9881889763779526 0.0 0.07086614173228346 children [ Shape { appearance Appearance { material Material { diffuseColor .72 .73 .75 } } geometry Box { size 1.2401574803149606 1.7007874015748032 0.11811023622047244 } } ] }
Transform { translation 1.9881889763779526 0.0 0.07086614173228346 children [ Shape { appearance Appearance { material Material { diffuseColor .72 .73 .75 } } geometry Box { size 1.2401574803149606 1.7007874015748032 0.11811023622047244 } } ] }
