#VRML V2.0 utf8
Transform { translation 0.0 0.0 0.15748031496062992 children [ Shape { appearance Appearance { material Material { diffuseColor 0.1 0.12 0.13 } } geometry Box { size 0.7874015748031495 0.4921259842519685 0.19685039370078738 } } ] }
Transform { translation -0.39370078740157477 0.0 0.07086614173228346 children [ Shape { appearance Appearance { material Material { diffuseColor .72 .73 .75 } } geometry Box { size 0.3897637795275591 0.45669291338582674 0.11811023622047244 } } ] }
Transform { translation 0.39370078740157477 0.0 0.07086614173228346 children [ Shape { appearance Appearance { material Material { diffuseColor .72 .73 .75 } } geometry Box { size 0.3897637795275591 0.45669291338582674 0.11811023622047244 } } ] }
